<svg width="72" height="72" viewBox="0 0 72 72" fill="none" xmlns="http://www.w3.org/2000/svg">
<circle cx="36" cy="36" r="36" fill="#70C679" fill-opacity="0.3"/>
<path d="M34.7167 43.1868L42.35 35.5535L41.05 34.2535L34.7167 40.5868L31.2834 37.1535L29.9834 38.4535L34.7167 43.1868ZM27.5834 49.0202C27.05 49.0202 26.5834 48.8202 26.1834 48.4202C25.7834 48.0202 25.5834 47.5535 25.5834 47.0202V24.3535C25.5834 23.8202 25.7834 23.3535 26.1834 22.9535C26.5834 22.5535 27.05 22.3535 27.5834 22.3535H39.6167L46.9167 29.6535V47.0202C46.9167 47.5535 46.7167 48.0202 46.3167 48.4202C45.9167 48.8202 45.45 49.0202 44.9167 49.0202H27.5834ZM38.6167 30.5535H44.9167L38.6167 24.3535V30.5535Z" fill="#36A941"/>
</svg>
