<svg width="22" height="28" viewBox="0 0 22 28" fill="none" xmlns="http://www.w3.org/2000/svg">
<path d="M9.71671 21.1868L17.35 13.5535L16.05 12.2535L9.71671 18.5868L6.28337 15.1535L4.98337 16.4535L9.71671 21.1868ZM2.58337 27.0202C2.05004 27.0202 1.58337 26.8202 1.18337 26.4202C0.783374 26.0202 0.583374 25.5535 0.583374 25.0202V2.35352C0.583374 1.82018 0.783374 1.35352 1.18337 0.953516C1.58337 0.553516 2.05004 0.353516 2.58337 0.353516H14.6167L21.9167 7.65352V25.0202C21.9167 25.5535 21.7167 26.0202 21.3167 26.4202C20.9167 26.8202 20.45 27.0202 19.9167 27.0202H2.58337ZM13.6167 8.55352H19.9167L13.6167 2.35352V8.55352Z" fill="#36A941"/>
</svg>
