<svg width="72" height="72" viewBox="0 0 72 72" fill="none" xmlns="http://www.w3.org/2000/svg">
<circle cx="36" cy="36" r="36" fill="#EF7979" fill-opacity="0.3"/>
<path d="M38.3668 30.866H44.6668L38.3668 24.666V30.866ZM41.2002 48.1994L39.8002 46.7994L42.6002 43.9994L39.8002 41.1994L41.2002 39.7994L44.0002 42.5994L46.8002 39.7994L48.2002 41.1994L45.4335 43.9994L48.2002 46.7994L46.8002 48.1994L44.0002 45.4327L41.2002 48.1994ZM27.3335 49.3327C26.8002 49.3327 26.3335 49.1327 25.9335 48.7327C25.5335 48.3327 25.3335 47.866 25.3335 47.3327V24.666C25.3335 24.1327 25.5335 23.666 25.9335 23.266C26.3335 22.866 26.8002 22.666 27.3335 22.666H39.3668L46.6668 29.966V37.5327C46.2224 37.3549 45.7779 37.2216 45.3335 37.1327C44.889 37.0438 44.4335 36.9994 43.9668 36.9994C42.0335 36.9994 40.389 37.6771 39.0335 39.0327C37.6779 40.3882 37.0002 42.0327 37.0002 43.966C37.0002 45.0105 37.2224 45.9994 37.6668 46.9327C38.1113 47.866 38.7224 48.666 39.5002 49.3327H27.3335Z" fill="#EA1616"/>
</svg>
