<svg width="72" height="73" viewBox="0 0 72 73" fill="none" xmlns="http://www.w3.org/2000/svg">
<circle cx="36" cy="36.5" r="36" fill="#316496" fill-opacity="0.2"/>
<path d="M35.3168 46.016H37.3168V39.316L40.0502 42.0493L41.4502 40.6493L36.2502 35.5827L31.1168 40.716L32.5168 42.116L35.3168 39.316V46.016ZM27.5835 50.0827C27.0502 50.0827 26.5835 49.8827 26.1835 49.4827C25.7835 49.0827 25.5835 48.616 25.5835 48.0827V25.416C25.5835 24.8827 25.7835 24.416 26.1835 24.016C26.5835 23.616 27.0502 23.416 27.5835 23.416H39.6168L46.9168 30.716V48.0827C46.9168 48.616 46.7168 49.0827 46.3168 49.4827C45.9168 49.8827 45.4502 50.0827 44.9168 50.0827H27.5835ZM38.6168 31.616H44.9168L38.6168 25.416V31.616Z" fill="#083D71"/>
</svg>
